Coordinates
version=1
nRows=32
nColumns=12
inDegrees=yes

Units are S.I. units (second, meters, Newtons, ...)
Angles are in degrees

endheader
time	SC_y	SC_z	SC_x	AC_y	AC_z	AC_x	GH_y	GH_z	GH_yy	EL_x	PS_y
       0.0              -13.42          34.82          72.08          31.35         -14.65         -13.62         -171.2         -6.204         -169.3          108.1          8.473
  0.007722              -13.42          34.82          72.08          31.36         -14.65         -13.62         -171.1         -6.196         -169.3          108.1          8.488
   0.01544              -13.43          34.82          72.07          31.36         -14.65         -13.62         -171.1         -6.188         -169.3          108.1          8.504
   0.02317              -13.44          34.82          72.07          31.37         -14.65         -13.62         -171.0         -6.179         -169.3          108.1          8.522
   0.03089              -13.44          34.82          72.07          31.37         -14.65         -13.62         -171.0          -6.17         -169.3          108.1           8.54
   0.03861              -13.45          34.82          72.07          31.38         -14.64         -13.62         -170.9          -6.16         -169.3          108.0           8.56
   0.04633              -13.46          34.82          72.06          31.39         -14.64         -13.62         -170.9         -6.149         -169.3          108.0          8.581
   0.05405              -13.47          34.82          72.06          31.39         -14.64         -13.61         -170.8         -6.138         -169.3          108.0          8.603
   0.06178              -13.48          34.82          72.06           31.4         -14.63         -13.61         -170.8         -6.126         -169.3          108.0          8.627
    0.0695              -13.49          34.82          72.05          31.41         -14.63         -13.61         -170.7         -6.113         -169.3          108.0          8.653
   0.07722               -13.5          34.83          72.05          31.42         -14.63         -13.61         -170.6         -6.099         -169.3          108.0           8.68
   0.08494              -13.52          34.83          72.05          31.43         -14.62          -13.6         -170.6         -6.084         -169.3          108.0           8.71
   0.09266              -13.53          34.83          72.04          31.44         -14.62          -13.6         -170.5         -6.068         -169.3          108.0          8.742
    0.1004              -13.54          34.83          72.04          31.45         -14.61          -13.6         -170.4          -6.05         -169.3          107.9          8.777
    0.1081              -13.56          34.83          72.03          31.46         -14.61          -13.6         -170.3         -6.031         -169.3          107.9          8.814
    0.1158              -13.58          34.83          72.03          31.48          -14.6         -13.59         -170.2          -6.01         -169.3          107.9          8.855
    0.1236               -13.6          34.83          72.02          31.49         -14.59         -13.59         -170.1         -5.988         -169.3          107.9          8.899
    0.1313              -13.62          34.84          72.01          31.51         -14.59         -13.59         -170.0         -5.964         -169.3          107.9          8.948
     0.139              -13.64          34.84          72.01          31.52         -14.58         -13.58         -169.8         -5.937         -169.3          107.8            9.0
    0.1467              -13.66          34.84           72.0          31.54         -14.57         -13.58         -169.7         -5.908         -169.3          107.8          9.058
    0.1544              -13.69          34.84          71.99          31.56         -14.56         -13.57         -169.5         -5.876         -169.3          107.8          9.121
    0.1622              -13.72          34.85          71.98          31.59         -14.55         -13.57         -169.3         -5.841         -169.3          107.7           9.19
    0.1699              -13.75          34.85          71.97          31.61         -14.54         -13.56         -169.1         -5.802         -169.3          107.7          9.267
    0.1776              -13.79          34.86          71.96          31.64         -14.53         -13.55         -168.9         -5.758         -169.3          107.7          9.352
    0.1853              -13.83          34.86          71.95          31.67         -14.52         -13.55         -168.7         -5.711         -169.3          107.6          9.447
     0.193              -13.87          34.86          71.93           31.7          -14.5         -13.54         -168.4         -5.657         -169.3          107.6          9.553
    0.2008              -13.92          34.87          71.92          31.74         -14.48         -13.53         -168.1         -5.597         -169.3          107.5          9.671
    0.2085              -13.98          34.88           71.9          31.78         -14.47         -13.52         -167.8          -5.53         -169.4          107.4          9.804
    0.2162              -14.04          34.88          71.88          31.83         -14.44         -13.51         -167.4         -5.454         -169.4          107.4          9.955
    0.2239              -14.11          34.89          71.85          31.89         -14.42         -13.49         -167.0         -5.367         -169.4          107.3          10.13
    0.2317               -14.2           34.9          71.83          31.95         -14.39         -13.48         -166.5         -5.268         -169.4          107.2          10.32
    0.2394              -14.29          34.91           71.8          32.02         -14.36         -13.46         -165.9         -5.155         -169.4          107.1          10.54
